<?xml version="1.0" standalone="no"?><!DOCTYPE svg PUBLIC "-//W3C//DTD SVG 1.1//EN" "http://www.w3.org/Graphics/SVG/1.1/DTD/svg11.dtd"><svg t="1627462541707" class="icon" viewBox="0 0 1024 1024" version="1.1" xmlns="http://www.w3.org/2000/svg" p-id="11375" width="16" height="16" xmlns:xlink="http://www.w3.org/1999/xlink"><defs><style type="text/css">@font-face { font-family: feedback-iconfont; src: url("//at.alicdn.com/t/font_1031158_1uhr8ri0pk5.eot?#iefix") format("embedded-opentype"), url("//at.alicdn.com/t/font_1031158_1uhr8ri0pk5.woff2") format("woff2"), url("//at.alicdn.com/t/font_1031158_1uhr8ri0pk5.woff") format("woff"), url("//at.alicdn.com/t/font_1031158_1uhr8ri0pk5.ttf") format("truetype"), url("//at.alicdn.com/t/font_1031158_1uhr8ri0pk5.svg#iconfont") format("svg"); }
</style></defs><path d="M525.53955555 24.63288889a29.12711111 29.12711111 0 0 1 28.66107734 23.88423111L554.66666666 53.76v120.00369778h183.55905423a29.12711111 29.12711111 0 0 1 5.24287998 57.84644267l-5.24288 0.46603377L554.66666666 232.01792v58.25422222h87.38133333a29.12711111 29.12711111 0 0 1 5.24288 57.84644267l-5.24288 0.46603378L554.66666666 348.52636445v54.75896889l-0.11650845 1.39810133a291.27111111 291.27111111 0 1 1-58.02120534 0L496.41244444 403.28533334v-349.52533334a29.12711111 29.12711111 0 0 1 29.12711111-29.12711111z m0 436.90666667a233.01688889 233.01688889 0 1 0 0 466.03377778 233.01688889 233.01688889 0 0 0 0-466.03377778z" p-id="11376" fill="#2c2c2c"></path></svg>