<?xml version="1.0" standalone="no"?><!DOCTYPE svg PUBLIC "-//W3C//DTD SVG 1.1//EN" "http://www.w3.org/Graphics/SVG/1.1/DTD/svg11.dtd"><svg class="icon" width="16px" height="16.00px" viewBox="0 0 1024 1024" version="1.1" xmlns="http://www.w3.org/2000/svg"><path d="M932.72493853 162.47466667h-841.44987706c-19.41807445 0-32.36345629 12.94538297-32.36345628 32.36345628s12.94538297 32.36345629 32.36345628 32.36345742h64.72691371v711.99604964c0 19.41807445 12.94538297 32.36345629 32.36345743 32.36345628h647.26913478c19.41807445 0 32.36345629-12.94538297 32.36345743-32.36345628v-711.99604964h64.72691371c19.41807445 0 32.36345629-12.94538297 32.36345628-32.36345742s-12.94538297-32.36345629-32.36345628-32.36345628z m-129.45382742 737.88681443h-589.0149137v-679.63259221h589.0149137V900.3614811z m-414.25224704-776.7229622h239.48958038c19.41807445 0 32.36345629-12.94538297 32.36345628-32.36345743s-12.94538297-32.36345629-32.36345628-32.36345628h-239.48958038c-19.41807445 0-32.36345629 12.94538297-32.36345628 32.36345628 6.47269149 19.41807445 19.41807445 32.36345629 32.36345628 32.36345743z m-6.47269148 634.32375296c19.41807445 0 32.36345629-12.94538297 32.36345742-32.36345743v-317.1618759c0-19.41807445-12.94538297-32.36345629-32.36345742-32.36345743s-32.36345629 12.94538297-32.36345629 32.36345743v317.1618759c0 19.41807445 19.41807445 32.36345629 32.36345629 32.36345743z m258.90765482 0c19.41807445 0 32.36345629-12.94538297 32.36345629-32.36345743v-317.1618759c0-19.41807445-12.94538297-32.36345629-32.36345629-32.36345743s-32.36345629 12.94538297-32.36345742 32.36345743v317.1618759c0 19.41807445 12.94538297 32.36345629 32.36345742 32.36345743z" fill="#6973FF" /><path d="M932.72493853 162.47466667h-841.44987706c-19.41807445 0-32.36345629 12.94538297-32.36345628 32.36345628s12.94538297 32.36345629 32.36345628 32.36345742h64.72691371v711.99604964c0 19.41807445 12.94538297 32.36345629 32.36345743 32.36345628h647.26913478c19.41807445 0 32.36345629-12.94538297 32.36345743-32.36345628v-711.99604964h64.72691371c19.41807445 0 32.36345629-12.94538297 32.36345628-32.36345742s-12.94538297-32.36345629-32.36345628-32.36345628z m-129.45382742 737.88681443h-589.0149137v-679.63259221h589.0149137V900.3614811z m-414.25224704-776.7229622h239.48958038c19.41807445 0 32.36345629-12.94538297 32.36345628-32.36345743s-12.94538297-32.36345629-32.36345628-32.36345628h-239.48958038c-19.41807445 0-32.36345629 12.94538297-32.36345628 32.36345628 6.47269149 19.41807445 19.41807445 32.36345629 32.36345628 32.36345743z m-6.47269148 634.32375296c19.41807445 0 32.36345629-12.94538297 32.36345742-32.36345743v-317.1618759c0-19.41807445-12.94538297-32.36345629-32.36345742-32.36345743s-32.36345629 12.94538297-32.36345629 32.36345743v317.1618759c0 19.41807445 19.41807445 32.36345629 32.36345629 32.36345743z m258.90765482 0c19.41807445 0 32.36345629-12.94538297 32.36345629-32.36345743v-317.1618759c0-19.41807445-12.94538297-32.36345629-32.36345629-32.36345743s-32.36345629 12.94538297-32.36345742 32.36345743v317.1618759c0 19.41807445 12.94538297 32.36345629 32.36345742 32.36345743z" fill="#6973FF" /></svg>