<?xml version="1.0" encoding="UTF-8"?>
<svg width="16px" height="16px" viewBox="0 0 16 16" version="1.1" xmlns="http://www.w3.org/2000/svg" xmlns:xlink="http://www.w3.org/1999/xlink">
    <!-- Generator: Sketch 55.2 (78181) - https://sketchapp.com -->
    <title>邮箱</title>
    <desc>Created with Sketch.</desc>
    <g id="页面1" stroke="none" stroke-width="1" fill="none" fill-rule="evenodd">
        <g id="邮箱" fill="#5D637E" fill-rule="nonzero">
            <rect id="矩形" opacity="0" x="0" y="0" width="16" height="16"></rect>
            <path d="M15.9926981,12.6148586 L15.9926981,3.14994302 L15.9957483,3.14994302 L15.9926981,3.0706366 C15.9896478,2.98217944 15.9804971,2.8937223 15.9621956,2.80526513 C15.9133917,2.37518035 15.596166,2.04575369 15.1935335,2 L1.44302116,2 C1.24475512,2 1.04648908,2.02745223 0.854323531,2.08845716 C0.341882075,2.26232123 -0.00279580576,2.76561194 0.000254449338,3.33905833 L0.000254449338,12.3708389 C-0.00584604398,12.730768 0.0978623424,13.0815464 0.299178622,13.3804706 L0.305279115,13.3926716 L0.396786532,13.459777 C0.704861453,13.8288568 1.15629798,14.0393239 1.63823695,14.0423741 L14.6505895,14.0423741 C15.2880911,14.0423741 15.8371355,13.5848371 15.9926981,12.9229336 L15.9957483,12.9137828 C16.0018488,12.8131247 16.0018488,12.7155168 15.9926981,12.6148586 L15.9926981,12.6148586 Z M5.96653706,8.5976837 L6.90296281,9.43955179 L7.64417278,10.1167066 C7.73568018,10.2173647 7.86379054,10.2783697 8.00105165,10.2783697 C8.1352625,10.2783697 8.26337286,10.220415 8.35793051,10.1167066 L10.0660687,8.56413098 L14.6719412,13.0174912 L1.51622708,13.0174912 L5.96653706,8.5976837 Z M7.99495115,9.11012514 L1.26000634,3.00048094 L1.33016203,3.00048094 C4.9508049,2.9852297 13.2108731,2.95167699 14.7359964,2.99438044 L7.99495115,9.11012514 Z M10.7889772,7.93272991 L15.0379709,4.08331853 L15.0379709,12.0963167 L10.7889772,7.93272991 Z M5.24057834,7.93578015 L0.951931424,12.1908743 L0.951931424,4.06196679 L5.24057834,7.93578015 L5.24057834,7.93578015 Z" id="形状"></path>
        </g>
    </g>
</svg>