<?xml version="1.0" encoding="UTF-8"?>
<svg width="18px" height="18px" viewBox="0 0 18 18" version="1.1" xmlns="http://www.w3.org/2000/svg" xmlns:xlink="http://www.w3.org/1999/xlink">
    <title>icon/功能/手机备份</title>
    <g id="icon/功能/手机备份" stroke="none" stroke-width="1" fill="none" fill-rule="evenodd">
        <path d="M14.2708333,0 C14.5354698,0 14.75,0.223857625 14.75,0.5 L14.75,17.5 C14.75,17.7761424 14.5354698,18 14.2708333,18 L3.72916667,18 C3.46453022,18 3.25,17.7761424 3.25,17.5 L3.25,0.5 C3.25,0.223857625 3.46453022,0 3.72916667,0 L14.2708333,0 Z M13.7916667,1 L4.20833333,1 L4.20833333,17 L13.7916667,17 L13.7916667,1 Z M9,13 C9.55228475,13 10,13.4477153 10,14 C10,14.5522847 9.55228475,15 9,15 C8.44771525,15 8,14.5522847 8,14 C8,13.4477153 8.44771525,13 9,13 Z M10.65,2 C10.8432997,2 11,2.15670034 11,2.35 C11,2.54329966 10.8432997,2.7 10.65,2.7 L7.35,2.7 C7.15670034,2.7 7,2.54329966 7,2.35 C7,2.15670034 7.15670034,2 7.35,2 L10.65,2 Z" id="形状结合" fill="#6973FF"></path>
    </g>
</svg>