<?xml version="1.0" standalone="no"?><!DOCTYPE svg PUBLIC "-//W3C//DTD SVG 1.1//EN" "http://www.w3.org/Graphics/SVG/1.1/DTD/svg11.dtd"><svg class="icon" width="16px" height="16.00px" viewBox="0 0 1024 1024" version="1.1" xmlns="http://www.w3.org/2000/svg"><path d="M514.7136 358.5024h0.3072l1.0752 0.1536c5.632 0.8192 10.9568 3.2768 15.2064 7.4752l126.3104 123.1872a26.2144 26.2144 0 0 1 0 37.6832 27.8016 27.8016 0 0 1-38.656 0l-79.616-77.6704v394.3936c0 14.6944-12.288 26.6752-27.3408 26.6752a27.0848 27.0848 0 0 1-27.3408-26.624V449.3824l-79.616 77.6704a27.8016 27.8016 0 0 1-38.656 0 26.2144 26.2144 0 0 1 0-37.6832l126.3104-123.1872a27.0848 27.0848 0 0 1 15.104-7.4752l1.1776-0.2048h0.3072l1.024-0.0512H512C512.4608 358.4 512.9216 358.4 513.3824 358.4c0.7168 0 1.0752 0 1.3312 0.1024zM102.4 691.2a25.6 25.6 0 0 0 25.6 25.6h153.6a25.6 25.6 0 1 1 0 51.2h-204.8a25.6 25.6 0 0 1-25.6-25.6v-563.2a25.6 25.6 0 0 1 25.6-25.6h870.4a25.6 25.6 0 0 1 25.6 25.6v563.2a25.6 25.6 0 0 1-25.6 25.6h-204.8a25.6 25.6 0 1 1 0-51.2h153.6a25.6 25.6 0 0 0 25.6-25.6v-460.8a25.6 25.6 0 0 0-25.6-25.6h-768a25.6 25.6 0 0 0-25.6 25.6v460.8z" fill="#5D637E" /></svg>