<?xml version="1.0" encoding="UTF-8"?>
<svg width="16px" height="16px" viewBox="0 0 16 16" version="1.1" xmlns="http://www.w3.org/2000/svg" xmlns:xlink="http://www.w3.org/1999/xlink">
    <!-- Generator: Sketch 55.2 (78181) - https://sketchapp.com -->
    <title>账号</title>
    <desc>Created with Sketch.</desc>
    <g id="页面1" stroke="none" stroke-width="1" fill="none" fill-rule="evenodd">
        <g id="账号" transform="translate(0.500000, 0.000000)" fill="#5D637E" fill-rule="nonzero">
            <path d="M9.7263092,8.32934297 C9.91771504,8.39868309 10.1069745,8.47676826 10.2938618,8.56354657 C11.1775537,8.9738775 11.9700609,9.56022024 12.6495864,10.3064086 C13.325479,11.0486008 13.8558757,11.9119487 14.225882,12.8722938 C14.5341297,13.6722484 14.7195869,14.5119827 14.7798923,15.3760572 C14.8036875,15.7130045 14.5381258,16 14.2002704,16 C13.8954739,16 13.641719,15.764591 13.6204668,15.4603394 C13.3710713,11.8974173 10.6722236,9.0826815 7.39084765,9.0826815 C4.10947171,9.0826815 1.41080565,11.8974173 1.16122853,15.4603394 C1.13997633,15.7644094 0.886403079,16 0.581424933,16 C0.243569453,16 -0.0219922205,15.7130045 0.00143969182,15.3760572 C0.0615634359,14.5119827 0.247202307,13.6722484 0.555450023,12.8722938 C0.925456267,11.911767 1.45585304,11.0486008 2.13174565,10.3064086 C2.8112711,9.56040188 3.60377834,8.97405915 4.48747023,8.56354657 C4.60501463,8.50896658 4.72349745,8.45782551 4.84286251,8.41013626 C3.54530758,7.61075611 2.6803067,6.17691784 2.6803067,4.54106829 C2.6803067,2.03312709 4.71343379,0 7.22137498,0 C9.72931617,0 11.7624433,2.03312709 11.7624433,4.54106829 C11.7624433,6.12319593 10.9533234,7.51636267 9.7263092,8.32934297 Z M7.22137498,1.16251348 C6.31897389,1.16251348 5.47052069,1.51399217 4.83240978,2.15210308 C4.19429886,2.790214 3.84282018,3.63848555 3.84282018,4.54106829 C3.84282018,5.44365102 4.19429886,6.29192257 4.83240978,6.93003349 C5.47052069,7.56814441 6.31897389,7.91962309 7.22137498,7.91962309 C8.12377607,7.91962309 8.97222927,7.56814441 9.61034019,6.93003349 C10.2484511,6.29192257 10.5999298,5.44346938 10.5999298,4.54106829 C10.5999298,3.6386672 10.2484511,2.790214 9.61034019,2.15210308 C8.97222927,1.51399217 8.12377607,1.16251348 7.22137498,1.16251348 Z" id="形状结合"></path>
        </g>
    </g>
</svg>