<?xml version="1.0" encoding="UTF-8"?>
<svg width="208px" height="110px" viewBox="0 0 208 110" version="1.1" xmlns="http://www.w3.org/2000/svg" xmlns:xlink="http://www.w3.org/1999/xlink">
    <title>运行失败</title>
    <g id="运行失败" stroke="none" stroke-width="1" fill="none" fill-rule="evenodd" opacity="0.9">
        <g id="6.icon/空状态/暗黑/训练失败">
            <g id="编组-2">
                <g id="icon/缺省/配置点">
                    <g id="分组">
                        <rect id="矩形" x="0" y="0" width="208" height="110"></rect>
                        <rect id="矩形" stroke="#EFF0FF" stroke-width="6" fill="#FFFFFF" x="55" y="9" width="102.557135" height="75.9219189" rx="4"></rect>
                        <polygon id="路径-7" fill="#FFFFFF" points="56 84.7357856 155.986835 84.7357856 155.986835 10 56 10"></polygon>
                        <path d="M34.156948,94.8355048 L76.585587,94.8355048 C77.5293408,94.8355048 78.2944044,95.6005684 78.2944044,96.5443222 C78.2944044,97.488076 77.5293408,98.2531396 76.585587,98.2531396 L34.156948,98.2531396 C33.2131942,98.2531396 32.4481306,97.488076 32.4481306,96.5443222 C32.4481306,95.6005684 33.2131942,94.8355048 34.156948,94.8355048 Z" id="Rectangle-16-Copy" fill="#F1F1FF"></path>
                        <path d="M129.134848,94.8355048 C130.073304,94.8355048 130.834072,95.5962734 130.834072,96.534729 L130.834072,96.5539154 C130.834072,97.492371 130.073304,98.2531396 129.134848,98.2531396 C128.196393,98.2531396 127.435624,97.492371 127.435624,96.5539154 L127.435624,96.534729 C127.435624,95.5962734 128.196393,94.8355048 129.134848,94.8355048 Z" id="Rectangle-16-Copy-4" fill="#F1F1FF"></path>
                        <path d="M153.417365,94.8355048 C154.355821,94.8355048 155.116589,95.5962734 155.116589,96.534729 L155.116589,96.5539154 C155.116589,97.492371 154.355821,98.2531396 153.417365,98.2531396 C152.47891,98.2531396 151.718141,97.492371 151.718141,96.5539154 L151.718141,96.534729 C151.718141,95.5962734 152.47891,94.8355048 153.417365,94.8355048 Z" id="Rectangle-16-Copy-6" fill="#F1F1FF"></path>
                        <path d="M86.2929406,94.8355048 L121.617617,94.8355048 C122.561371,94.8355048 123.326434,95.6005684 123.326434,96.5443222 C123.326434,97.488076 122.561371,98.2531396 121.617617,98.2531396 L86.2929406,98.2531396 C85.3491868,98.2531396 84.5841232,97.488076 84.5841232,96.5443222 C84.5841232,95.6005684 85.3491868,94.8355048 86.2929406,94.8355048 Z" id="Rectangle-16-Copy-3" fill="#F1F1FF"></path>
                        <path d="M158.4263,94.8355048 L176.758735,94.8355048 C177.702489,94.8355048 178.467552,95.6005684 178.467552,96.5443222 C178.467552,97.488076 177.702489,98.2531396 176.758735,98.2531396 L158.4263,98.2531396 C157.482546,98.2531396 156.717483,97.488076 156.717483,96.5443222 C156.717483,95.6005684 157.482546,94.8355048 158.4263,94.8355048 Z" id="Rectangle-16-Copy-5" fill="#F1F1FF"></path>
                        <g id="Group-5-Copy-3" transform="translate(26.400686, 47.620828)" fill="#F1F1FF">
                            <path d="M5.70629806,0 C6.31803208,-1.12373716e-16 6.81394048,0.495908403 6.81394048,1.10764242 L6.81394048,10.3756104 C6.81394048,10.9873444 6.31803208,11.4832528 5.70629806,11.4832528 C5.09456405,11.4832528 4.59865565,10.9873444 4.59865565,10.3756104 L4.59865565,1.10764242 C4.59865565,0.495908403 5.09456405,1.12373716e-16 5.70629806,0 Z" id="Rectangle-23-Copy"></path>
                            <path d="M5.70629806,0.0353283544 C6.3218194,0.0353283544 6.82079803,0.534306984 6.82079803,1.14982832 L6.82079803,10.3334245 C6.82079803,10.9489459 6.3218194,11.4479245 5.70629806,11.4479245 C5.09077673,11.4479245 4.5917981,10.9489459 4.5917981,10.3334245 L4.5917981,1.14982832 C4.5917981,0.534306984 5.09077673,0.0353283544 5.70629806,0.0353283544 Z" id="Rectangle-23-Copy-2" transform="translate(5.706298, 5.741626) rotate(90.000000) translate(-5.706298, -5.741626) "></path>
                        </g>
                        <g id="Group-5-Copy" transform="translate(37.070612, 68.965425)" fill="#F1F1FF">
                            <path d="M5.77423018,0 C6.38849203,-1.1283807e-16 6.88644964,0.497957611 6.88644964,1.11221945 L6.88644964,10.5077388 C6.88644964,11.1220006 6.38849203,11.6199582 5.77423018,11.6199582 C5.15996834,11.6199582 4.66201073,11.1220006 4.66201073,10.5077388 L4.66201073,1.11221945 C4.66201073,0.497957611 5.15996834,1.1283807e-16 5.77423018,0 Z" id="Rectangle-23-Copy"></path>
                            <path d="M5.77423018,0.0357489301 C6.39229499,0.0357489301 6.89333552,0.536789455 6.89333552,1.15485426 L6.89333552,10.465104 C6.89333552,11.0831688 6.39229499,11.5842093 5.77423018,11.5842093 C5.15616538,11.5842093 4.65512485,11.0831688 4.65512485,10.465104 L4.65512485,1.15485426 C4.65512485,0.536789455 5.15616538,0.0357489301 5.77423018,0.0357489301 Z" id="Rectangle-23-Copy-2" transform="translate(5.774230, 5.809979) rotate(90.000000) translate(-5.774230, -5.809979) "></path>
                        </g>
                        <ellipse id="Oval-6-Copy-3" stroke="#F1F1FF" stroke-width="2" cx="168.083333" cy="73.4552737" rx="3.44444444" ry="3.44459279"></ellipse>
                        <path d="M32.1020889,86.2121449 L179.203467,86.2121449 C180.195665,86.2121449 181,87.0164803 181,88.0086782 C181,89.0008762 180.195665,89.8052115 179.203467,89.8052115 L32.1020889,89.8052115 C31.1098909,89.8052115 30.3055556,89.0008762 30.3055556,88.0086782 C30.3055556,87.0164803 31.1098909,86.2121449 32.1020889,86.2121449 Z" id="Rectangle-16" fill="#F1F1FF"></path>
                    </g>
                    <g id="分组-12" transform="translate(83.142857, 34.857143)" fill="#000000" opacity="0">
                        <g id="人12">
                            <rect id="矩形" x="0" y="0" width="13.7142857" height="13.7142857"></rect>
                        </g>
                    </g>
                    <g id="分组-11" transform="translate(116.396825, 25.928571)" fill="#000000" opacity="0">
                        <g id="地址">
                            <rect id="矩形" x="0" y="0" width="12.2222222" height="12.1428571"></rect>
                        </g>
                    </g>
                </g>
                <g id="完成" transform="translate(82.000000, 33.000000)" fill="#000000" fill-rule="nonzero" opacity="0">
                    <rect id="矩形" x="0" y="0" width="16" height="16"></rect>
                </g>
                <g id="完成备份" transform="translate(112.000000, 58.000000)" fill="#000000" fill-rule="nonzero" opacity="0">
                    <rect id="矩形" x="0" y="0" width="12" height="12"></rect>
                </g>
            </g>
            <g id="编组-7" transform="translate(93.692308, 32.692308)" fill="#E6505A" fill-rule="nonzero">
                <g id="感叹-(1)">
                    <path d="M12,0 C18.6274994,0 24,5.37250061 24,12 C24,18.6274994 18.6274994,24 12,24 C5.37250061,24 0,18.6274994 0,12 C0,5.37250061 5.37250061,0 12,0 Z M12,16.1104843 C10.996379,16.1104843 10.1827032,16.9239239 10.1827032,17.9277812 C10.1827032,18.9314021 10.996379,19.745078 12,19.745078 C13.003621,19.745078 13.8172968,18.9314021 13.8172968,17.9277812 C13.8172968,16.9239239 13.003621,16.1104843 12,16.1104843 Z M11.947735,14.6897591 C12.8122346,14.6897591 13.5129215,13.9888358 13.5129215,13.1245961 L13.5129215,5.82010857 C13.5129215,4.95560898 12.8122346,4.254922 11.947735,4.254922 C11.083259,4.254922 10.382572,4.95586889 10.382572,5.82010857 L10.382572,13.1245961 C10.382572,13.9890721 11.083259,14.6897591 11.947735,14.6897591 L11.947735,14.6897591 Z" id="形状"></path>
                </g>
            </g>
            <path d="M127.100558,54 C131.908254,42.990416 127.301858,30.1896073 116.529644,24.6247464 C105.757523,19.059794 92.4534211,22.6082061 86,32.7673551 L87.773023,35.8194323 C91.7856417,28.1299253 100.376848,23.8728557 109.033421,25.284681 C117.690041,26.6962775 124.431251,33.4539615 125.715974,42.0073538 L125.715974,42.0911666 L121.683671,42.0911666 M84.9085444,36 C80.0859868,47.0080303 84.6911089,59.8177786 95.4713339,65.3808818 C106.251327,70.943985 119.561664,67.3794534 126,57.2052852 L124.227757,54.1554256 C120.219121,61.8388425 111.634642,66.094099 102.983391,64.6862711 C94.3321408,63.2784431 87.5926616,56.5292809 86.3045674,47.9840237 L86.3045674,47.8882942 L90.2984017,47.8882942" id="形状" fill="#F1F1FF" fill-rule="nonzero"></path>
            <path d="M66.7175879,37.4414446 L73.0908595,46.2671695 L79.6622881,42.1774779 L80.8051453,43.6463417 C76.9418092,48.2138343 74.3703806,50.4975805 73.0908595,50.4975805 C71.1715779,50.4975805 68.5927237,47.3630919 67.2655672,44.64431 C66.3807962,42.8317887 66.1981364,40.4308336 66.7175879,37.4414446 Z" id="路径-21" fill="#DBDBFE"></path>
            <g id="503" transform="translate(66.633373, 62.564701) rotate(-45.000000) translate(-66.633373, -62.564701) translate(38.181290, 31.484900)">
                <g id="编组-3" transform="translate(19.782789, 42.427907) rotate(5.000000) translate(-19.782789, -42.427907) translate(1.517520, 24.218844)">
                    <polygon id="路径-9" fill="#FBCBB8" points="2.82622852 24.0594726 0.252937036 25.0993057 0.252937036 26.404441 2.82622852 25.8583295 3.42347269 25.0993057 4.47565074 23.7132806"></polygon>
                    <path d="M19.1151102,1.53982748 L7.68045445,20.9250654 L2.95540248,23.6785736 L2.95540248,26.8083706 C15.5234745,20.4822835 24.1599163,13.6482675 28.864728,6.30632269 C35.9219456,-4.70659458 25.6155041,2.05259061 24.6511208,2.05259061 C24.0081986,2.05259061 22.1628618,1.88166957 19.1151102,1.53982748 Z" id="路径-3" fill="#DBDBFE"></path>
                    <g id="编组" transform="translate(7.466347, 32.240583) rotate(36.000000) translate(-7.466347, -32.240583) translate(4.156003, 29.481962)">
                        <path d="M2.7055279,0.157649563 C2.7055279,0.157649563 2.7055279,0.874002664 2.7055279,2.30670887 L1.63725899,2.30670887 L1.16999565,8.31728067e-14 C2.19368382,0.105099709 2.7055279,0.157649563 2.7055279,0.157649563 Z" id="路径-7" fill="#FBCBB8"></path>
                        <polygon id="路径-8" fill="#464444" points="1.49488652 2.18747249 2.71233574 2.20884717 5.78316939 4.51555604 0.488595066 3.81840298 1.20689557 2.18747249"></polygon>
                    </g>
                    <path d="M1.53553226,24.3153272 C1.53553226,24.5874574 1.53553226,25.1607236 1.53553226,26.035126 C1.53553226,26.9095284 2.04737634,27.6685534 3.07106451,28.3122011 C1.74852472,28.6777256 0.86281619,28.611499 0.413938932,28.1135212 C-0.259376956,27.3665545 0.0591702325,24.5912514 0.195745499,24.5912514 C0.286795677,24.5912514 0.733391263,24.4992767 1.53553226,24.3153272 Z" id="路径-10" fill="#464444"></path>
                    <path d="M23.4793471,6.22691826 L10.2013318,20.6149894 L4.15009395,26.9163525 L5.60679038,28.9154577 C17.0304815,20.8769786 25.6665374,14.043318 31.5149581,8.4144759 C40.2875892,-0.0287872827 28.2655582,4.16055925 27.3011821,4.16051389 C26.6582647,4.16048364 25.3843197,4.8492851 23.4793471,6.22691826 Z" id="路径-3备份" fill="#DBDBFE" transform="translate(19.425573, 16.018350) rotate(-9.000000) translate(-19.425573, -16.018350) "></path>
                </g>
                <path d="M45.6373045,16.4009618 L47.4733889,15.5723124 C47.4723555,16.3050119 47.4718387,16.6713617 47.4718387,16.6713617 C47.4718387,16.6713617 41.3815263,25.0419266 38.4750666,25.9423618 C36.5374269,26.5426519 34.6009358,28.409891 32.6655933,31.5440792 C30.1452715,29.4558065 28.8851106,28.4116702 28.8851106,28.4116702 C28.8851106,28.4116702 26.9998196,24.8880699 27.0003189,24.5340076 C27.0008184,24.1799454 33.7800815,16.0136952 35.0296931,16.0119188 C36.2793046,16.0101425 42.1447891,15.604737 42.59574,15.604096 C42.8963738,15.6036686 43.9102287,15.8692906 45.6373045,16.4009618 Z" id="路径-4" fill="#DBDBFE" transform="translate(37.236854, 23.558196) rotate(-10.000000) translate(-37.236854, -23.558196) "></path>
                <g id="编组-2" transform="translate(41.455891, 0.000000)">
                    <path d="M11.2090455,5.63362994 C11.3049421,6.28494672 11.3509724,6.79097025 11.3471364,7.15170054 C11.3396943,7.85154402 11.3304878,8.71729695 11.325645,9.17271147 C11.3182042,9.87242227 11.2639778,10.1371461 11.1629656,9.96688296 L10.8151324,9.97054046 C10.8642976,11.4464389 10.109339,12.2828335 8.55025669,12.4797244 C7.84544103,12.568733 7.20998106,12.7465526 6.64387678,13.0131831 C6.1864484,13.2286281 5.80259477,13.8846167 5.49231587,14.9811486 L2.85423379,14.174606 L3.62069339,11.521409 C4.25439922,10.5364312 4.57201594,9.97211479 4.57354357,9.82845996 C4.57583501,9.61297772 5.35182458,7.68546153 5.88625046,7.41682976 C6.42067634,7.14819799 8.08521002,6.19831238 8.40985361,6.19489872 C8.7344972,6.19148506 9.60057618,5.65054316 9.60057618,5.65054316 C9.60057618,5.65054316 10.1367326,5.64490542 11.2090455,5.63362994 Z" id="路径-6" fill="#FBCBB8" transform="translate(7.100796, 10.307389) rotate(31.000000) translate(-7.100796, -10.307389) "></path>
                    <path d="M9.84779384,4.38325896 C8.9569513,5.11613195 8.20445187,5.4857974 7.59029556,5.49225532 C6.66906109,5.50194219 5.04995719,7.93481503 5.02147112,10.6135848 C5.00248041,12.3994314 5.10054646,12.8142963 5.31566926,11.8581798 C6.79565482,11.0402162 7.53893764,10.3218456 7.54551773,9.70306805 C7.55209782,9.08429053 7.72520224,8.65975127 8.06483101,8.42945027 C8.62299398,8.67970179 8.8989417,9.09951922 8.89267419,9.68890257 C8.88327293,10.5729776 10.1153971,6.83315119 11.8564671,6.81484366 C13.0171805,6.80263864 13.3929019,5.77053139 12.9836313,3.71852192 C11.9151625,2.48154366 11.2577531,2.17640305 11.0114031,2.80310011 C10.7650531,3.42979717 10.3771833,3.95651679 9.84779384,4.38325896 Z" id="路径-5" fill="#452208" transform="translate(9.081414, 7.422632) rotate(31.000000) translate(-9.081414, -7.422632) "></path>
                </g>
                <path d="M44.8824133,10.9632064 C44.4665459,10.6933493 43.7321619,11.1075491 42.6792612,12.205806 C41.6960361,13.2313858 40.6087909,9.55423528 33.0892728,13.4157564 C28.5302153,15.7569832 22.6287471,18.6118175 20.3460819,25.7311508 C20.3460819,25.7311508 23.3790123,29.5459233 25.3886817,29.7598234 C26.5278874,29.8810753 27.1798504,30.561516 27.3445707,31.8011457 C25.6107028,26.4170803 29.7644408,22.3454812 39.8057848,19.5863486 C41.2208224,19.1975285 48.5111245,17.3787507 47.8254149,16.0854002 C47.2797176,15.0561338 46.2987171,13.3487359 44.8824133,10.9632064 Z" id="路径" fill="#EAEAFE" transform="translate(34.108439, 21.342255) rotate(-10.000000) translate(-34.108439, -21.342255) "></path>
                <path d="M24.6690199,33.3296417 C24.6690199,33.3296417 25.7878829,31.5111046 26.9055537,31.5114261 C28.0232246,31.5117475 29.9525067,32.0476913 30.3702946,32.3667094 C30.7880825,32.6857274 29.8566741,33.1507191 29.2884397,33.3309703 C28.6457751,33.5348316 27.319906,33.3304041 27.319906,33.3304041 C27.319906,33.3304041 26.5896793,33.7406683 25.1292258,34.5611965 C24.8224219,33.74016 24.6690199,33.3296417 24.6690199,33.3296417 Z" id="路径-12" fill="#FBCBB8" transform="translate(27.571938, 33.036311) scale(-1, 1) rotate(88.000000) translate(-27.571938, -33.036311) "></path>
                <path d="M24.7896486,31.9119909 C25.9073194,31.9123123 28.3819076,33.5644013 28.7996955,33.8834193 C29.2174834,34.2024373 28.286075,34.6674291 27.7178405,34.8476802 C27.075176,35.0515416 26.7020111,35.5438579 26.7020111,35.5438579 C26.6692433,33.7122042 23.6719777,31.9116694 24.7896486,31.9119909 Z" id="路径-12" fill="#DFDFFE" transform="translate(26.722186, 33.727924) scale(-1, 1) rotate(88.000000) translate(-26.722186, -33.727924) "></path>
                <path d="M25.6931313,28.7232558 C29.603904,27.6930659 32.9672847,26.3077198 35.7832736,24.5672175 C38.5992624,22.8267151 41.3612313,20.4832815 44.0691804,17.5369167 L43.4912618,15.6164659 C39.5976158,18.1412291 36.2985838,19.9674502 33.5941658,21.0951294 C30.8897477,22.2228086 27.5799223,23.2192553 23.6646896,24.0844694 L23.6528102,27.666555 L25.6931313,28.7232558 Z" id="路径-11" fill="#EAEAFE" transform="translate(33.860995, 22.169861) rotate(152.000000) translate(-33.860995, -22.169861) "></path>
            </g>
            <path d="M79.6622881,42.1774779 C81.6884901,39.9639212 83.1820131,38.8571429 84.1428571,38.8571429 C85.1037012,38.8571429 84.7227488,39.4819578 83,40.7315877 C84.0082194,41.5219998 84.18893,42.0039632 83.5421317,42.1774779 C82.8184423,42.1774779 81.9061135,42.6670992 80.8051453,43.6463417 L79.6622881,42.1774779 Z" id="路径-39" fill="#FBCBB8"></path>
        </g>
    </g>
</svg>