<?xml version="1.0" encoding="UTF-8"?>
<svg width="208px" height="110px" viewBox="0 0 208 110" version="1.1" xmlns="http://www.w3.org/2000/svg" xmlns:xlink="http://www.w3.org/1999/xlink">
    <!-- Generator: Sketch 55.2 (78181) - https://sketchapp.com -->
    <title>工作流运行中</title>
    <desc>Created with Sketch.</desc>
    <g id="UI-guidline" stroke="none" stroke-width="1" fill="none" fill-rule="evenodd">
        <g id="工作流运行中">
            <g id="icon/空状态/运行工作流">
                <g id="编组-4">
                    <rect id="矩形" x="0" y="0" width="208" height="110"></rect>
                    <g id="编组-3" transform="translate(27.000000, 0.000000)">
                        <g id="icon/缺省/配置点备份-2">
                            <g id="icon/缺省/配置点">
                                <g id="分组" transform="translate(0.000000, 9.285714)">
                                    <rect id="矩形" stroke="#EAEAFD" stroke-width="6" x="29" y="3" width="102.557135" height="75.9219189" rx="4"></rect>
                                    <g id="Group-5-Copy-3" transform="translate(0.000000, 41.335113)" fill="#EAEAFE">
                                        <path d="M6.10698418,0 C6.71871819,-1.12373716e-16 7.2146266,0.495908403 7.2146266,1.10764242 L7.2146266,10.3756104 C7.2146266,10.9873444 6.71871819,11.4832528 6.10698418,11.4832528 C5.49525016,11.4832528 4.99934176,10.9873444 4.99934176,10.3756104 L4.99934176,1.10764242 C4.99934176,0.495908403 5.49525016,1.12373716e-16 6.10698418,0 Z" id="Rectangle-23-Copy"></path>
                                        <path d="M6.10698418,0.0353283544 C6.72250551,0.0353283544 7.22148414,0.534306984 7.22148414,1.14982832 L7.22148414,10.3334245 C7.22148414,10.9489459 6.72250551,11.4479245 6.10698418,11.4479245 C5.49146285,11.4479245 4.99248422,10.9489459 4.99248422,10.3334245 L4.99248422,1.14982832 C4.99248422,0.534306984 5.49146285,0.0353283544 6.10698418,0.0353283544 Z" id="Rectangle-23-Copy-2" transform="translate(6.106984, 5.741626) rotate(90.000000) translate(-6.106984, -5.741626) "></path>
                                    </g>
                                    <g id="Group-5-Copy" transform="translate(10.733281, 10.714286)" fill="#EAEAFE">
                                        <path d="M6.11156121,0 C6.72582306,-1.1283807e-16 7.22378067,0.497957611 7.22378067,1.11221945 L7.22378067,10.5077388 C7.22378067,11.1220006 6.72582306,11.6199582 6.11156121,11.6199582 C5.49729937,11.6199582 4.99934176,11.1220006 4.99934176,10.5077388 L4.99934176,1.11221945 C4.99934176,0.497957611 5.49729937,1.1283807e-16 6.11156121,0 Z" id="Rectangle-23-Copy"></path>
                                        <path d="M6.11156121,0.0357489301 C6.72962602,0.0357489301 7.23066655,0.536789455 7.23066655,1.15485426 L7.23066655,10.465104 C7.23066655,11.0831688 6.72962602,11.5842093 6.11156121,11.5842093 C5.4934964,11.5842093 4.99245588,11.0831688 4.99245588,10.465104 L4.99245588,1.15485426 C4.99245588,0.536789455 5.4934964,0.0357489301 6.11156121,0.0357489301 Z" id="Rectangle-23-Copy-2" transform="translate(6.111561, 5.809979) rotate(90.000000) translate(-6.111561, -5.809979) "></path>
                                    </g>
                                    <ellipse id="Oval-6-Copy-3" stroke="#EAEAFE" stroke-width="2" cx="142.083333" cy="67.1695594" rx="3.44444444" ry="3.44459279"></ellipse>
                                    <path d="M6.10208886,79.9264306 L153.203467,79.9264306 C154.195665,79.9264306 155,80.730766 155,81.722964 C155,82.7151619 154.195665,83.5194973 153.203467,83.5194973 L6.10208886,83.5194973 C5.10989092,83.5194973 4.30555556,82.7151619 4.30555556,81.722964 C4.30555556,80.730766 5.10989092,79.9264306 6.10208886,79.9264306 Z" id="Rectangle-16" fill="#EAEAFD"></path>
                                    <polygon id="路径-7" fill="#FFFFFF" points="30.016456 79.2078173 130.003291 79.2078173 130.003291 4.47203167 30.016456 4.47203167"></polygon>
                                </g>
                                <rect id="矩形" fill="#000000" opacity="0" x="22.8571429" y="0" width="90" height="89.2857143"></rect>
                                <g id="分组-12" transform="translate(48.571429, 29.285714)">
                                    <g id="分组-10" fill="#FFFFFF" opacity="0.725957961">
                                        <path d="M0.857142857,14.5714286 C0.857142857,22.1456194 6.99723772,28.2857143 14.5714286,28.2857143 C22.1456194,28.2857143 28.2857143,22.1456194 28.2857143,14.5714286 C28.2857143,6.99723772 22.1456194,0.857142857 14.5714286,0.857142857 C6.99723772,0.857142857 0.857142857,6.99723772 0.857142857,14.5714286 Z" id="路径"></path>
                                    </g>
                                    <g id="人12" transform="translate(8.571429, 8.571429)" fill="#000000" opacity="0">
                                        <rect id="矩形" x="0" y="0" width="13.7142857" height="13.7142857"></rect>
                                    </g>
                                </g>
                                <g id="分组-11" transform="translate(84.285714, 22.857143)" fill="#FFFFFF" opacity="0.725957961">
                                    <g id="分组-10-copy">
                                        <path d="M0.873015873,11.7880334 C0.873015873,17.7758145 5.75879737,22.6298701 11.7857143,22.6298701 C17.8126312,22.6298701 22.6984127,17.7758145 22.6984127,11.7880334 C22.6984127,5.80025231 17.8126312,0.94619666 11.7857143,0.94619666 C5.75879737,0.94619666 0.873015873,5.80025231 0.873015873,11.7880334 Z" id="路径"></path>
                                    </g>
                                </g>
                                <g id="分组-14" transform="translate(80.000000, 55.000000)" fill="#FFFFFF" opacity="0.725957961">
                                    <g id="分组-10-copy-2">
                                        <path d="M0.862068966,12.5 C0.862068966,18.9274518 6.07254817,24.137931 12.5,24.137931 C18.9274518,24.137931 24.137931,18.9274518 24.137931,12.5 C24.137931,6.07254817 18.9274518,0.862068966 12.5,0.862068966 C6.07254817,0.862068966 0.862068966,6.07254817 0.862068966,12.5 Z" id="路径"></path>
                                    </g>
                                </g>
                            </g>
                        </g>
                        <path d="M25,62 C25.6966146,64.1128671 26.0449219,65.4479252 26.0449219,66.0051745 C26.0449219,66.5624238 27.1894339,66.5624238 29.478458,66.0051745 L28.3882154,62.266618 L25,62 Z" id="路径-14" fill="#FBCBB8"></path>
                        <path d="M33.8095141,89.2857143 L32.8317871,90.6491699 L33.3376465,91.3679849 L35.169377,89.2857143 C35.3224463,88.7658736 35.3224463,88.5018127 35.169377,88.4935316 C35.0163077,88.4852505 34.5630201,88.7493114 33.8095141,89.2857143 Z" id="路径-16" fill="#FBCBB8"></path>
                        <path d="M58.972168,89.9443359 C64.5330869,88.1985677 65.9233166,86.9003906 63.1428571,86.0498047 C61.5523841,85.5632542 59.6693254,79.9299191 55.7226563,80 C53.7540668,80.0349562 49.8465147,82.0515577 44,86.0498047 L58.972168,89.9443359 Z" id="路径-17" fill="#D7D7FF"></path>
                        <path d="M25.046875,84.7739258 C26.5526517,91.667806 30.3916378,95.1147461 36.5638334,95.1147461 C42.736029,95.1147461 50.2054738,93.391276 58.972168,89.9443359 C66.0704288,93.1243025 70.0320871,94.4761905 70.8571429,94 C71.6821987,93.5238095 72.4023365,93.1736866 73.0175565,92.9496314 C67.9845538,88.6114657 64.0778227,86.0170898 61.2973633,85.1665039 C59.7068903,84.6799534 59.1070696,84.7038449 55.1604004,84.7739258 C53.1918109,84.8088819 49.4716774,85.2341749 44,86.0498047 C38.3454457,84.2952474 35.2748043,82.8483073 34.7880758,81.7089844 C34.3013473,80.5696615 31.0542804,81.5913086 25.046875,84.7739258 Z" id="路径-17备份" fill="#DBDBFE"></path>
                        <path d="M70.8571429,93.8212891 L73.1327909,95.1147461 C74.2425058,94.9349268 74.9237467,94.7488664 75.1765137,94.5565649 C75.2144368,94.5376847 74.5118001,94.0020402 73.0686035,92.9496314 L70.8571429,93.8212891 Z" id="路径-18备份" fill="#FBCBB8"></path>
                        <path d="M73.1327909,95.1147461 L78.3725586,95.1147461 L78.3725586,94.3879395 C76.1570263,93.9214948 74.8154329,93.8029112 74.3477783,94.0321887 C74.1234541,94.1421684 73.7184583,94.5030209 73.1327909,95.1147461 Z" id="路径-18" fill="#464444"></path>
                        <g id="编组" transform="translate(4.000000, 48.000000)">
                            <g id="icon/缺省/503服务器错误" transform="translate(28.099932, 26.410257) rotate(-59.000000) translate(-28.099932, -26.410257) translate(11.599932, 4.410257)">
                                <g id="503" transform="translate(0.000000, 0.357143)">
                                    <g id="编组-2" transform="translate(19.892263, 29.404379) rotate(127.000000) translate(-19.892263, -29.404379) translate(9.392263, 20.904379)">
                                        <path d="M19.0691244,4.19571086 C18.9115205,3.54902471 18.7696586,3.15628881 18.6435388,3.01750316 C18.2164012,2.54746927 18.4935922,1.54163489 19.4751119,2.22044605e-14 L19.649071,2.22044605e-14 L19.649071,2.31245233 C20.8469476,3.11968093 21.0288726,4.05700153 20.194846,5.12441415 C19.3608194,6.19182676 19.120908,6.32080909 19.4751119,5.51136114 L19.0691244,4.19571086 Z" id="路径-13" fill="#FBCBB8"></path>
                                        <path d="M2.00096383,16.9734553 C3.07113856,16.5436181 4.98186737,15.4779399 7.73315026,13.7764205 C10.4844332,12.0749012 14.558491,9.49561808 19.9553239,6.03857129 L19.3832898,4.14906684 C13.9346856,6.46906112 9.8883627,8.17882853 7.2443211,9.27836909 C4.60027949,10.3779096 2.18550579,11.4209025 1.59872116e-14,12.4073476 L1.59872116e-14,15.9281423 L2.00096383,16.9734553 Z" id="路径-11" fill="#EAEAFE"></path>
                                    </g>
                                    <path d="M30.7356366,3.90505057 C30.8364556,4.55747324 30.8868651,5.06405652 30.8868651,5.42480041 C30.8868651,6.12467026 30.8868651,6.99045581 30.8868651,7.44588749 C30.8868651,8.14562466 30.8364556,8.40981779 30.7356366,8.23846688 L30.39462,8.23846688 C30.458216,9.71510299 29.7266907,10.543683 28.2000441,10.724207 C26.6733975,10.9047309 25.4840352,11.5234527 24.6319571,12.5803721 L23.3565542,11.4310629 L23.3565542,9.71390577 C23.9676404,8.73544508 24.2731836,8.17438462 24.2731836,8.03072438 C24.2731836,7.81523401 25.0139531,5.89559045 25.5351633,5.6325389 C26.0563736,5.36948735 27.6785652,4.43696508 27.9968466,4.43696508 C28.3151281,4.43696508 29.158689,3.90505057 29.158689,3.90505057 C29.158689,3.90505057 29.6843382,3.90505057 30.7356366,3.90505057 Z" id="路径-6" fill="#FBCBB8"></path>
                                    <path d="M27.6473455,2.01342942 C26.7815049,2.73704329 26.0475243,3.09885022 25.4454038,3.09885022 C24.542223,3.09885022 22.9800386,5.51505923 22.9800386,8.19392996 C22.9800386,9.97984378 23.0805193,10.3958021 23.2814807,9.441805 C24.7240961,8.6392836 25.4454038,7.92862247 25.4454038,7.30982163 C25.4454038,6.69102079 25.6107082,6.26823854 25.9413171,6.04147487 C26.4912121,6.29763383 26.7661596,6.72041608 26.7661596,7.30982163 C26.7661596,8.19392996 27.9352783,4.46650225 29.6422281,4.46650225 C30.7801946,4.46650225 31.1378326,3.43819202 30.7151418,1.38157158 C29.6545973,0.133171624 29.0068176,-0.178928364 28.7718028,0.445271613 C28.536788,1.06947159 28.1619689,1.59219086 27.6473455,2.01342942 Z" id="路径-5" fill="#452208"></path>
                                    <path d="M0.0790516131,32.4045285 C0.0790516131,32.4045285 -0.0314928273,30.613796 1.14719535,30.7696814 C2.32588353,30.9255667 5.21582951,32.002376 5.6221344,32.317847 C6.02843929,32.633318 4.75265155,32.8961861 4.1998619,33.0746619 C3.78306413,33.2092309 2.74209567,33.1857204 1.07695653,33.0041303 C0.411686584,32.6043958 0.0790516131,32.4045285 0.0790516131,32.4045285 Z" id="路径-12" fill="#FBCBB8" transform="translate(2.888470, 31.960321) scale(-1, 1) translate(-2.888470, -31.960321) "></path>
                                </g>
                            </g>
                            <path d="M24.5,16 L24.794052,16 C27.714319,16 30.1254634,18.282235 30.2857599,21.1980993 L30.9821794,33.8662774 C31.0968502,35.952189 30.0198817,37.922991 28.2024376,38.9530752 L23.7891257,41.4544356 C22.8281709,41.999082 21.60764,41.6615973 21.0629936,40.7006426 C20.9177723,40.4444192 20.8309314,40.1592851 20.8086751,39.8656113 L19.4156302,21.4842731 C19.2028221,18.6762532 21.3066569,16.2273882 24.1146768,16.0145801 C24.2428881,16.0048635 24.3714211,16 24.5,16 Z" id="矩形" fill="#DBDBFE"></path>
                            <path d="M29.6580299,20.7230141 C31.0124431,25.7034843 31.850066,29.4622635 32.1708984,31.9993516 C32.4917309,34.5364397 32.4917309,37.6318939 32.1708984,41.2857143 L29.3360646,42.3763341 C25.3603305,29.8748589 23.9432051,22.6570856 25.0846885,20.7230141 C26.2261719,18.7889425 27.750619,18.7889425 29.6580299,20.7230141 Z" id="路径-15" fill="#EAEAFE"></path>
                        </g>
                        <path d="M32.1807471,50.0011547 L35.6321603,50.1901089 C35.8472134,50.2018824 36.011613,50.3788979 35.9993569,50.585484 C35.9884627,50.7691162 35.8416557,50.9143015 35.6581278,50.9360289 L35.5877772,50.9382235 L32.136364,50.7492693 C31.9551417,50.7393479 31.7907511,50.8508357 31.7398201,51.0182009 C31.6860966,51.1947423 31.7738422,51.3787596 31.939211,51.4582498 L32.0047382,51.4829401 L33.1281667,51.7984216 C33.6469788,51.9441146 33.9943787,52.4122325 33.9685914,52.9308855 C33.9395758,53.5144688 33.4522227,53.9727897 32.8568545,54 L32.7440427,54 L30.3714212,53.8911151 C30.1562643,53.8812434 29.9901759,53.7056888 30.0004523,53.4990031 C30.0095868,53.3152824 30.1549966,53.1688054 30.3383086,53.1454564 L30.4086352,53.1426398 L32.7812567,53.2514999 C32.9964135,53.2613717 33.1791632,53.1018224 33.1894396,52.8951367 C33.1969609,52.7438629 33.1092417,52.605486 32.9713399,52.5407212 L32.9092981,52.5176487 L31.7858695,52.2021672 C31.1656221,52.0279892 30.8097985,51.4037766 30.9911153,50.8079494 C31.1337222,50.339327 31.5728367,50.0167308 32.0727728,50 L32.1807471,50.0011547 Z" id="路径-20" fill="#452208" fill-rule="nonzero"></path>
                        <path d="M40.1807471,43.0011547 L43.6321603,43.1901089 C43.8472134,43.2018824 44.011613,43.3788979 43.9993569,43.585484 C43.9884627,43.7691162 43.8416557,43.9143015 43.6581278,43.9360289 L43.5877772,43.9382235 L40.136364,43.7492693 C39.9551417,43.7393479 39.7907511,43.8508357 39.7398201,44.0182009 C39.6860966,44.1947423 39.7738422,44.3787596 39.939211,44.4582498 L40.0047382,44.4829401 L41.1281667,44.7984216 C41.6469788,44.9441146 41.9943787,45.4122325 41.9685914,45.9308855 C41.9395758,46.5144688 41.4522227,46.9727897 40.8568545,47 L40.7440427,47 L38.3714212,46.8911151 C38.1562643,46.8812434 37.9901759,46.7056888 38.0004523,46.4990031 C38.0095868,46.3152824 38.1549966,46.1688054 38.3383086,46.1454564 L38.4086352,46.1426398 L40.7812567,46.2514999 C40.9964135,46.2613717 41.1791632,46.1018224 41.1894396,45.8951367 C41.1969609,45.7438629 41.1092417,45.605486 40.9713399,45.5407212 L40.9092981,45.5176487 L39.7858695,45.2021672 C39.1656221,45.0279892 38.8097985,44.4037766 38.9911153,43.8079494 C39.1337222,43.339327 39.5728367,43.0167308 40.0727728,43 L40.1807471,43.0011547 Z" id="路径-20备份" fill="#452208" fill-rule="nonzero" transform="translate(41.000000, 45.000000) scale(-1, -1) translate(-41.000000, -45.000000) "></path>
                        <polyline id="路径-19" stroke="#D4D4FF" stroke-width="2" stroke-linecap="round" points="19 56.468815 23.2332807 62.2874944 25.731306 95.2619048 84.2857143 95.2619048"></polyline>
                        <g id="1101加载中" transform="translate(67.000000, 30.000000)" fill-rule="nonzero">
                            <rect id="矩形" fill="#000000" opacity="0" x="0" y="0" width="26" height="26"></rect>
                            <path d="M3.57085964,4.86505336 C3.57085964,6.79342749 5.10600611,8.3566836 6.99970524,8.3566836 C8.89340437,8.3566836 10.4285508,6.79342749 10.4285508,4.86505336 C10.4285508,2.93667922 8.89340437,1.37342311 6.99970524,1.37342311 C5.10600611,1.37342311 3.57085964,2.93667922 3.57085964,4.86505336 L3.57085964,4.86505336 Z M1.0000125,12.2838528 C0.996919818,13.3773187 1.56800482,14.3890786 2.49743214,14.9367265 C3.42685947,15.4843743 4.57285832,15.4843743 5.50228565,14.9367265 C6.43171297,14.3890786 7.00279797,13.3773187 6.99970529,12.2838528 C7.00279797,11.1903868 6.43171297,10.1786269 5.50228565,9.63097902 C4.57285832,9.08333117 3.42685947,9.08333117 2.49743214,9.63097902 C1.56800482,10.1786269 0.996919818,11.1903868 1.0000125,12.2838528 Z M3.57148682,18.8302459 C3.57148682,20.2764366 4.72277506,21.4488058 6.14296108,21.4488058 C7.5631471,21.4488058 8.71443535,20.2764366 8.71443535,18.8302459 C8.71443535,17.3840553 7.5631471,16.2116861 6.14296108,16.2116861 C4.72277506,16.2116861 3.57148682,17.3840553 3.57148682,18.8302459 L3.57148682,18.8302459 Z M10.8710343,21.7110513 C10.8710343,22.9752028 11.8774042,24 13.1188243,24 C14.3602444,24 15.3666143,22.9752028 15.3666143,21.7110513 C15.3666143,20.4468999 14.3602444,19.4221027 13.1188243,19.4221027 C11.8774042,19.4221027 10.8710343,20.4468999 10.8710343,21.7110513 L10.8710343,21.7110513 Z M18.1423088,19.2671388 C18.1423088,20.4724211 19.101814,21.4494955 20.2854235,21.4494955 C21.4690331,21.4494955 22.4285383,20.4724211 22.4285383,19.2671388 C22.4285383,18.0618565 21.4690331,17.0847821 20.2854235,17.0847821 C19.101814,17.0847821 18.1423088,18.0618565 18.1423088,19.2671388 Z M21.5717941,11.8476496 C21.5717941,12.8116568 22.3392242,13.5931391 23.2858971,13.5931391 C24.23257,13.5931391 25,12.8116568 25,11.8476496 C25,10.8836425 24.23257,10.1021602 23.2858971,10.1021602 C22.3392242,10.1021602 21.5717941,10.8836425 21.5717941,11.8476496 Z M18.9996801,5.30125646 C18.9996801,5.76901486 19.2447641,6.20124144 19.6425706,6.43512065 C20.0403772,6.66899985 20.530495,6.66899985 20.9283015,6.43512065 C21.3261081,6.20124144 21.571167,5.76901486 21.571167,5.30125646 C21.571167,4.57815761 20.99552,3.99197016 20.2854235,3.99197016 C19.5753271,3.99197016 18.9996801,4.57815761 18.9996801,5.30125646 L18.9996801,5.30125646 Z M12.7977114,1.87307046 C12.7977114,2.18498848 12.9611255,2.47321263 13.2263971,2.62917165 C13.4916687,2.78513067 13.8184968,2.78513067 14.0837685,2.62917165 C14.3490401,2.47321263 14.5124541,2.18498848 14.5124541,1.87307046 C14.5124541,1.56115243 14.3490401,1.27292828 14.0837685,1.11696926 C13.8184968,0.961010246 13.4916687,0.961010246 13.2263971,1.11696926 C12.9611255,1.27292828 12.7977114,1.56115243 12.7977114,1.87307046 L12.7977114,1.87307046 Z" id="形状" fill="#AFAFFF"></path>
                        </g>
                        <text id="等待中..." opacity="0.5" font-family="PingFangSC-Medium, PingFang SC" font-size="10" font-weight="400" letter-spacing="0.929847143" fill="#222432">
                            <tspan x="60" y="73">等待中...</tspan>
                        </text>
                    </g>
                </g>
            </g>
        </g>
    </g>
</svg>