<?xml version="1.0" standalone="no"?><!DOCTYPE svg PUBLIC "-//W3C//DTD SVG 1.1//EN" "http://www.w3.org/Graphics/SVG/1.1/DTD/svg11.dtd"><svg t="1630638593442" class="icon" viewBox="0 0 1024 1024" version="1.1" xmlns="http://www.w3.org/2000/svg" p-id="11104" xmlns:xlink="http://www.w3.org/1999/xlink" width="16" height="16"><defs><style type="text/css"></style></defs><path d="M726.68373333 91.56266667c36.7616 0 64.768 32.1536 67.94240001 71.2704l0.3072 7.3728v172.7488l143.66719999 90.0096V900.26666667l-0.35839999 5.9904a51.2 51.2 0 0 1-44.8512 44.8512l-5.9904 0.3584H143.15733333a51.2 51.2 0 0 1-50.8416-45.2096L91.95733333 900.26666667V432.96426667L231.73333333 347.92106667v-177.664c0-39.936 25.856-74.3936 61.44-78.336l6.8096-0.3584h426.7008z m160.768 396.4416l-337.97119999 170.4448a76.8 76.8 0 0 1-61.69600001 3.2768l-7.3728-3.2768-337.3056-169.6256L143.15733333 900.26666667h744.24320001V488.00426667z m-160.768-345.2416H299.98293333c-7.168 0-15.0528 8.8576-16.7424 22.2208l-0.3072 5.2224v331.6224l220.46720001 110.8992a25.6 25.6 0 0 0 18.53439999 1.7408l4.50560001-1.7408 217.24159999-109.568 0.0512-332.9536c0-14.4384-7.168-24.8832-14.336-27.0336l-2.7136-0.4096z m68.1984 260.7104V477.35466667l65.17760001-32.8704-65.17760001-41.0112z m-563.19999999 4.352l-61.44 37.376 61.44 30.9248V407.82506667zM570.93333333 388.26666667a25.6 25.6 0 0 1 4.608 50.7904l-4.608 0.4096h-192a25.6 25.6 0 0 1-4.608-50.7904L378.93333333 388.26666667h192z m76.8-102.4a25.6 25.6 0 0 1 4.608 50.7904l-4.608 0.4096h-268.8a25.6 25.6 0 0 1-4.608-50.7904L378.93333333 285.86666667h268.8z" p-id="11105"></path></svg>