<?xml version="1.0" standalone="no"?><!DOCTYPE svg PUBLIC "-//W3C//DTD SVG 1.1//EN" "http://www.w3.org/Graphics/SVG/1.1/DTD/svg11.dtd"><svg t="1634798983135" class="icon" viewBox="0 0 1024 1024" version="1.1" xmlns="http://www.w3.org/2000/svg" p-id="13945" xmlns:xlink="http://www.w3.org/1999/xlink" width="200" height="200"><defs><style type="text/css"></style></defs><path d="M839.68 75.09333333a54.61333333 54.61333333 0 0 1 54.61333333 54.61333334v764.58666666a54.61333333 54.61333333 0 0 1-48.22357333 54.23104L839.68 948.90666667H238.93333333a109.22666667 109.22666667 0 0 1-109.22666666-109.22666667V184.32a109.22666667 109.22666667 0 0 1 109.22666666-109.22666667h600.74666667z m0 709.97333334H238.93333333a54.61333333 54.61333333 0 0 0-6.38976 108.84437333L238.93333333 894.29333333h600.74666667v-109.22666666z m0-655.36H238.93333333a54.61333333 54.61333333 0 0 0-54.23104 48.22357333L184.32 184.32v560.76970667A108.68053333 108.68053333 0 0 1 238.93333333 730.45333333h600.74666667V129.70666667z m-330.79296 416.42666666c10.10346667 0 18.78698667 3.00373333 25.55904 9.93962667a33.42336 33.42336 0 0 1 10.10346667 25.28597333c0 10.43114667-3.38602667 18.89621333-10.10346667 25.83210667a37.6832 37.6832 0 0 1-25.55904 9.93962667 31.56650667 31.56650667 0 0 1-24.576-10.37653334 33.5872 33.5872 0 0 1-10.6496-25.3952c0-10.37653333 3.38602667-18.8416 10.59498667-25.28597333a31.1296 31.1296 0 0 1 24.576-9.93962667zM517.07904 238.93333333c31.34805333 0 56.41557333 8.90197333 75.69408 27.8528 18.78698667 18.35008 28.45354667 43.58144 28.45354667 75.09333334 0 25.66826667-6.28053333 47.24053333-17.85856 64.06144-4.36906667 5.7344-17.80394667 19.38773333-40.96 40.96a90.38506667 90.38506667 0 0 0-19.77002667 26.76053333 76.29482667 76.29482667 0 0 0-7.75509333 35.17098667v8.95658666h-51.55498667v-8.95658666c0-19.38773333 2.89450667-36.20864 9.12042667-49.86197334 6.77205333-14.7456 25.12213333-36.26325333 54.99562666-65.09909333l8.192-9.99424c8.73813333-12.06954667 13.05258667-24.68522667 13.05258667-38.33856 0-18.40469333-4.86058667-32.54954667-14.03562667-43.08992-9.61194667-10.48576-23.10144-15.72864-40.46848-15.72864-21.73610667 0-37.62858667 7.3728-47.29514666 22.06378667-8.68352 12.56106667-12.99797333 30.96576-12.99797334 54.0672H402.77333333c0-38.33856 10.10346667-68.26666667 30.85653334-90.33045334 20.26154667-22.55530667 48.22357333-33.5872 83.44917333-33.5872z" p-id="13946"></path></svg>