<?xml version="1.0" standalone="no"?><!DOCTYPE svg PUBLIC "-//W3C//DTD SVG 1.1//EN" "http://www.w3.org/Graphics/SVG/1.1/DTD/svg11.dtd"><svg t="1630638701709" class="icon" viewBox="0 0 1024 1024" version="1.1" xmlns="http://www.w3.org/2000/svg" p-id="11364" xmlns:xlink="http://www.w3.org/1999/xlink" width="16" height="16"><defs><style type="text/css"></style></defs><path d="M614.4 896a102.4 102.4 0 1 1-204.8 0h204.8zM512 51.2a51.2 51.2 0 0 1 50.8416 45.2096L563.2 102.4v29.5424a332.9024 332.9024 0 0 1 281.3952 316.928L844.8 460.8v358.4h51.2a25.6 25.6 0 0 1 4.608 50.7904L896 870.4h-768a25.6 25.6 0 0 1-4.608-50.7904L128 819.2h51.2V460.8A332.9024 332.9024 0 0 1 460.8 131.8912V102.4l0.3584-5.9904A51.2 51.2 0 0 1 512 51.2z m0 128a281.6 281.6 0 0 0-281.3952 270.2848L230.4 460.8v358.4h563.2V460.8A281.6 281.6 0 0 0 512 179.2z" p-id="11365"></path></svg>