<?xml version="1.0" standalone="no"?><!DOCTYPE svg PUBLIC "-//W3C//DTD SVG 1.1//EN" "http://www.w3.org/Graphics/SVG/1.1/DTD/svg11.dtd"><svg t="1630638697159" class="icon" viewBox="0 0 1024 1024" version="1.1" xmlns="http://www.w3.org/2000/svg" p-id="11234" xmlns:xlink="http://www.w3.org/1999/xlink" width="16" height="16"><defs><style type="text/css"></style></defs><path d="M512 40.73002667c34.95253333 0 76.45866667 2.73066667 124.79146667 8.192l37.46474666 4.64213333c6.49898667 0.87381333 13.05258667 1.74762667 19.6608 2.73066667l41.34229334 6.11669333c21.24458667 3.2768 43.47221333 7.04512 66.62826666 11.14112l47.62282667 8.68352001 50.13504 9.72117332a27.30666667 27.30666667 0 0 1 21.95456 26.76053334v456.23978666c0 174.43498667-256.84650667 394.19904-410.47381333 394.19904l-8.24661334-0.27306666c-151.44277333-9.72117333-389.82997333-213.70197333-400.09728-381.91104l-0.38229333-12.01493334V118.71786667a27.30666667 27.30666667 0 0 1 21.95456-26.76053334l26.76053333-5.24287999 51.44576-9.66656001 48.60586667-8.51967999 45.76597333-7.3728 21.84533334-3.27680001 41.50613333-5.67978665a1316.18133333 1316.18133333 0 0 1 138.39018667-11.30496z m0.05461333 54.61333333l-12.61568 0.10922668c-41.50613333 0.8192-92.62421333 5.35210667-153.35424 13.65333332l-41.94304 6.17130667-22.00917333 3.49525333-46.20288 7.80970667-49.04277333 8.90197333-29.92810667 5.67978668v432.97450665l0.32768 10.32192c8.46506667 137.89866667 223.47776 321.89098667 348.21461333 329.86453335l6.49898667 0.21845332c124.29994667 0 354.98666667-197.31797333 354.98666667-339.58570667l-0.05461334-433.79370665-28.56277333-5.46133335-49.20661333-8.95658666-46.42133334-7.86432-43.47221333-6.71743999c-70.12352-10.21269333-128.34133333-15.83786667-174.4896-16.71168L512 95.34336zM512 233.78816a124.29994667 124.29994667 0 0 1 27.30666667 245.59616001v61.93152H621.22666667a27.30666667 27.30666667 0 0 1 4.9152 54.17642666l-4.9152 0.43690667h-81.92v129.37898666a27.30666667 27.30666667 0 0 1-54.17642667 4.9152l-0.43690667-4.9152V479.38432001a124.35456 124.35456 0 0 1 27.30666667-245.59616001z m0 54.61333333a69.68661333 69.68661333 0 1 0 0 139.37322668 69.68661333 69.68661333 0 0 0 0-139.37322668z" p-id="11235"></path></svg>