<?xml version="1.0" standalone="no"?><!DOCTYPE svg PUBLIC "-//W3C//DTD SVG 1.1//EN" "http://www.w3.org/Graphics/SVG/1.1/DTD/svg11.dtd"><svg t="1630638752678" class="icon" viewBox="0 0 1024 1024" version="1.1" xmlns="http://www.w3.org/2000/svg" p-id="11674" xmlns:xlink="http://www.w3.org/1999/xlink" width="16" height="16"><defs><style type="text/css"></style></defs><path d="M654.464 533.12c12.288 4.416 24.384 9.408 36.352 14.976 56.576 26.24 107.264 63.744 150.784 111.488a520.64 520.64 0 0 1 100.864 164.224c19.712 51.2 31.616 104.96 35.456 160.256a37.248 37.248 0 0 1-74.24 5.376c-15.936-228.032-188.672-408.128-398.72-408.128-209.92 0-382.72 180.096-398.656 408.128a37.12 37.12 0 1 1-74.24-5.376c3.84-55.296 15.744-109.056 35.456-160.256 23.68-61.44 57.6-116.672 100.928-164.224a472.96 472.96 0 0 1 173.44-121.344 290.624 290.624 0 1 1 312.512-5.12zM494.144 74.368c-57.728 0-112 22.464-152.896 63.36a214.784 214.784 0 0 0-63.36 152.832c0 57.792 22.528 112 63.36 152.896 40.896 40.832 95.168 63.36 152.96 63.36 57.728 0 112-22.528 152.832-63.36 40.832-40.832 63.36-95.168 63.36-152.896 0-57.728-22.528-112-63.36-152.896a214.848 214.848 0 0 0-152.896-63.36z" p-id="11675"></path></svg>